<svg width="240" height="38" viewBox="0 0 240 38" fill="none" xmlns="http://www.w3.org/2000/svg">
<g clip-path="url(#clip0_127:132)">
<path fill-rule="evenodd" clip-rule="evenodd" d="M3.79816 29.0441C3.37787 29.0441 2.97315 29.0129 2.55286 28.9662C7.56518 28.3592 11.4412 24.0785 11.4412 18.9105C11.4412 13.7269 7.54962 9.46177 2.55286 8.85469C2.95758 8.80799 3.37787 8.77686 3.79816 8.77686C9.402 8.77686 13.9318 13.3222 13.9318 18.9105C13.9473 24.5143 9.402 29.0441 3.79816 29.0441ZM1.55662 25.3237C1.292 25.3237 1.02737 25.3082 0.762745 25.2771C3.93825 24.8879 6.39772 22.1794 6.39772 18.9105C6.39772 15.626 3.93825 12.933 0.762745 12.5439C1.02737 12.5127 1.292 12.4972 1.55662 12.4972C5.10572 12.4972 7.9699 15.3769 7.9699 18.926C7.9699 22.4596 5.10572 25.3237 1.55662 25.3237ZM0 23.1133C1.82125 22.5841 3.15994 20.9029 3.15994 18.9105C3.15994 16.918 1.83681 15.2368 0 14.7076C1.27643 15.6727 2.08587 17.1982 2.08587 18.9105C2.08587 20.6228 1.27643 22.1482 0 23.1133Z" fill="#29558E"/>
<path fill-rule="evenodd" clip-rule="evenodd" d="M11.6277 35.5671C10.9428 35.5671 10.2579 35.5204 9.58856 35.4426C17.8231 34.4308 24.2052 27.4104 24.2052 18.9113C24.2052 10.3966 17.8231 3.37618 9.58856 2.37995C10.2579 2.30211 10.9428 2.25542 11.6277 2.25542C20.8274 2.25542 28.2836 9.71164 28.2836 18.9268C28.2836 28.1109 20.8274 35.5671 11.6277 35.5671ZM7.05127 32.5473C6.49088 32.5473 5.9305 32.5162 5.38568 32.4539C12.1259 31.6289 17.3405 25.8849 17.3405 18.9268C17.3405 11.9687 12.1259 6.2248 5.38568 5.39979C5.9305 5.33753 6.49088 5.29083 7.05127 5.29083C14.5853 5.29083 20.6873 11.3928 20.6873 18.9268C20.6873 26.4453 14.5853 32.5473 7.05127 32.5473ZM18.2122 37.5596C28.5015 37.5596 36.8606 29.2161 36.8606 18.9113C36.8606 8.60644 28.5015 0.262939 18.2122 0.262939C17.4339 0.262939 16.6712 0.309638 15.924 0.403035C25.1548 1.53937 32.2841 9.38475 32.2841 18.9113C32.2841 28.4378 25.1392 36.2832 15.924 37.4195C16.6712 37.5129 17.4339 37.5596 18.2122 37.5596Z" fill="#29558E"/>
<path fill-rule="evenodd" clip-rule="evenodd" d="M234.147 0.262939L233.898 0.652095L226.566 12.498L219.234 0.652095L218.985 0.262939H213.132V18.1797H217.615V6.39603L225.009 17.8061L225.243 18.1797H227.874L228.138 17.8061L235.532 6.34933V18.1797H240V0.262939H234.147Z" fill="#29558E"/>
<path fill-rule="evenodd" clip-rule="evenodd" d="M65.6119 0.262939V12.2956C65.6119 13.5098 65.4874 14.4905 65.2539 15.2532C65.2072 15.4089 65.1605 15.5334 65.1138 15.6424C64.8336 16.3117 64.4445 16.7787 63.9308 17.0745C63.2926 17.4636 62.2652 17.7594 60.8487 17.9306C59.51 18.1018 57.7977 18.1797 55.6807 18.1797H55.6496C54.6066 18.1797 53.6571 18.1641 52.8165 18.133C51.9759 18.1018 51.2288 18.0396 50.5905 17.9773C50.1547 17.9306 49.75 17.8683 49.3919 17.8061C48.6292 17.666 48.0377 17.4792 47.6485 17.2457C46.9792 16.8565 46.4966 16.2183 46.1853 15.3155C45.9207 14.5216 45.7806 13.5098 45.7806 12.2956V0.262939H50.2792V12.2956C50.2792 12.7471 50.3259 13.0895 50.4349 13.323C50.4971 13.4631 50.5905 13.5565 50.6995 13.6032C50.9174 13.6966 51.4311 13.7744 52.2406 13.8367C53.0967 13.8989 54.2486 13.9301 55.6963 13.9301H55.7274C57.1595 13.9301 58.3114 13.8989 59.1987 13.8367C59.401 13.8211 59.5255 13.8056 59.5878 13.8056C60.1638 13.7433 60.5374 13.681 60.7242 13.6188C60.8175 13.5721 60.8954 13.4787 60.9576 13.3386C61.0666 13.1051 61.1133 12.7471 61.1133 12.3112V0.262939H65.6119Z" fill="#29558E"/>
<path fill-rule="evenodd" clip-rule="evenodd" d="M86.0656 4.20119L74.4843 13.9301H86.3769V18.1797H67.4484V14.4905L67.7597 14.2414L79.4811 4.52808H67.9932V0.262939H86.3769V3.93657L86.0656 4.20119Z" fill="#29558E"/>
<path fill-rule="evenodd" clip-rule="evenodd" d="M107.049 0.262939V4.52808H99.9976V18.1797H95.5145V4.52808H88.4319V0.262939H107.049Z" fill="#29558E"/>
<path fill-rule="evenodd" clip-rule="evenodd" d="M113.617 4.52808V6.98755H125.946V11.2371H113.617V13.9301H126.382V18.1797H109.134V0.262939H126.382V4.52808H113.617Z" fill="#29558E"/>
<path fill-rule="evenodd" clip-rule="evenodd" d="M145.358 13.9301V18.1797H128.764V0.262939H133.247V13.9301H145.358Z" fill="#29558E"/>
<path fill-rule="evenodd" clip-rule="evenodd" d="M151.848 4.52808V6.98755H164.177V11.2371H151.848V13.9301H164.613V18.1797H147.365V0.262939H164.613V4.52808H151.848Z" fill="#29558E"/>
<path fill-rule="evenodd" clip-rule="evenodd" d="M182.296 7.92122V7.11177C182.296 5.74195 182.125 4.96364 181.798 4.80797C181.58 4.69901 181.082 4.60561 180.304 4.54335C179.463 4.46552 178.311 4.43438 176.864 4.43438C173.968 4.43438 172.318 4.60561 171.914 4.96364H171.898C171.773 5.08817 171.649 5.46175 171.54 6.0844C171.415 6.84715 171.353 7.90565 171.353 9.24435C171.353 11.7505 171.54 13.167 171.914 13.4939C171.929 13.5095 171.976 13.5406 172.022 13.5562C172.1 13.6029 172.225 13.634 172.349 13.6807C173.19 13.9142 174.7 14.0387 176.848 14.0387C178.28 14.0387 179.432 14.0076 180.241 13.9453C180.973 13.8986 181.44 13.8364 181.611 13.7586C181.642 13.743 181.674 13.7119 181.72 13.6807C181.751 13.6496 181.798 13.6029 181.845 13.5406C182.141 13.1359 182.281 12.4043 182.281 11.3302V10.5208H186.764V11.3458C186.764 12.7623 186.624 13.9453 186.312 14.8482C186.266 15.0038 186.203 15.1751 186.141 15.2996C185.814 16.0935 185.347 16.6694 184.74 17.043H184.725C184.522 17.1676 184.289 17.2765 184.04 17.3699C183.791 17.4633 183.526 17.5567 183.246 17.619C181.829 17.977 179.681 18.1638 176.832 18.1638C174.809 18.1638 173.128 18.0393 171.82 17.7902C170.419 17.5256 169.376 17.1053 168.722 16.5449C168.053 15.9534 167.555 15.0194 167.259 13.743C166.979 12.56 166.823 11.05 166.823 9.22878C166.823 7.39197 166.963 5.88204 167.259 4.69901C167.555 3.40701 168.053 2.47304 168.707 1.88152C169.361 1.30557 170.388 0.885285 171.805 0.62066C173.112 0.3716 174.793 0.24707 176.832 0.24707H176.848C178.825 0.24707 180.459 0.324901 181.72 0.49613C181.969 0.527262 182.172 0.558395 182.343 0.589527C183.386 0.760756 184.195 1.02538 184.74 1.36784L184.756 1.3834H184.771C185.129 1.6169 185.441 1.91266 185.705 2.28625C185.954 2.64427 186.172 3.08012 186.328 3.56268C186.624 4.48108 186.779 5.66412 186.779 7.08064V7.89009H182.296V7.92122Z" fill="#29558E"/>
<path fill-rule="evenodd" clip-rule="evenodd" d="M205.941 12.3887C205.832 12.9957 205.692 13.3693 205.552 13.4939C205.381 13.634 204.851 13.7585 203.98 13.8519C202.968 13.9764 201.582 14.0231 199.823 14.0231C197.317 14.0231 195.589 13.8986 194.624 13.6651C194.453 13.6184 194.329 13.5873 194.235 13.5406C194.173 13.5094 194.126 13.4939 194.111 13.4783C193.971 13.3538 193.83 12.9957 193.721 12.3731C193.581 11.6259 193.519 10.5674 193.519 9.22871C193.519 7.32963 193.659 6.0065 193.924 5.29046C193.955 5.18149 194.002 5.10366 194.048 5.02583C194.064 4.9947 194.095 4.96357 194.095 4.948C194.266 4.80791 194.78 4.68338 195.667 4.58998C196.181 4.52771 196.788 4.48101 197.489 4.46545C198.173 4.43432 198.967 4.41875 199.839 4.41875C201.614 4.41875 202.999 4.48101 203.995 4.58998C204.431 4.63668 204.789 4.69894 205.054 4.74564C205.318 4.80791 205.49 4.87017 205.567 4.948C205.707 5.05697 205.832 5.43055 205.957 6.0532C206.081 6.81595 206.159 7.87445 206.159 9.21315C206.128 10.583 206.066 11.6415 205.941 12.3887ZM210.533 6.03764C210.471 5.15036 210.362 4.46545 210.206 3.99846C209.864 2.90883 209.21 2.06825 208.26 1.4923C208.089 1.38334 207.887 1.28994 207.669 1.19654C207.466 1.10314 207.264 1.02531 207.046 0.963049C206.315 0.729555 205.334 0.558327 204.104 0.449363C202.921 0.3404 201.489 0.293701 199.808 0.293701C198.158 0.293701 196.741 0.355966 195.527 0.46493C194.297 0.573893 193.317 0.760688 192.57 0.994181C191.387 1.36777 190.515 2.00599 189.939 2.89326C189.83 3.06449 189.721 3.25128 189.628 3.43808C189.55 3.62487 189.472 3.82723 189.41 4.02959C189.27 4.48102 189.176 5.1348 189.114 6.03764C189.052 6.89378 189.021 7.98341 189.021 9.25984C189.021 11.0811 189.083 12.4821 189.223 13.4627C189.254 13.6807 189.27 13.8519 189.301 14.0075C189.332 14.1788 189.379 14.3344 189.41 14.4745V14.4901C189.737 15.5642 190.375 16.4047 191.34 16.9807C191.527 17.0897 191.713 17.1986 191.916 17.2765C192.118 17.3698 192.336 17.4477 192.554 17.5099C193.068 17.6656 193.659 17.7901 194.375 17.8991C194.702 17.9458 195.076 17.9925 195.496 18.0236C196.679 18.1326 198.111 18.1793 199.777 18.1949H199.792C202.205 18.1949 204.135 18.0859 205.552 17.8524C205.848 17.8057 206.112 17.759 206.346 17.6967C206.595 17.6345 206.828 17.5878 207.046 17.5099C207.856 17.2609 208.525 16.8717 209.054 16.3736C209.599 15.8599 209.973 15.2217 210.206 14.459H210.222C210.362 14.0231 210.455 13.3382 210.517 12.4509C210.58 11.5948 210.611 10.5207 210.611 9.24428C210.626 7.96785 210.595 6.90935 210.533 6.03764Z" fill="#29558E"/>
<path d="M159.636 35.2627L161.256 32.1127H168.654L170.256 35.2627H173.766L167.196 22.7707H162.768L156.144 35.2627H159.636ZM162.462 29.7547L164.928 25.1107H165.072L167.448 29.7547H162.462ZM177.697 31.5727H183.259C186.337 31.5727 187.615 30.3127 187.615 27.1447C187.615 23.9947 186.373 22.7707 183.223 22.7707H174.709V35.2627H177.697V31.5727ZM177.697 25.2547H182.683C184.249 25.2547 184.627 25.9207 184.627 27.1447C184.627 28.4947 184.195 29.0887 182.683 29.0887H177.697V25.2547ZM192.305 22.7707H188.255L194.015 28.8367L187.553 35.2627H191.945L196.373 30.3307L200.801 35.2627H205.193L198.731 28.8367L204.491 22.7707H200.441L196.373 27.3247L192.305 22.7707ZM209.447 22.7707H206.459V35.2627H211.589L219.095 25.2547H219.509V35.2627H222.497V22.7707H217.475L209.861 32.7787H209.447V22.7707ZM227.727 25.1287H233.811C234.639 25.1287 235.053 25.6147 235.053 26.3707C235.053 27.1987 234.639 27.8287 233.829 27.8287H227.727V25.1287ZM224.739 35.2627H234.351C237.177 35.2627 238.527 34.2727 238.527 31.5907C238.527 29.6287 237.735 29.0887 236.493 28.6747C237.501 28.3507 238.041 27.9187 238.041 25.9027C238.041 23.5987 236.511 22.7707 233.739 22.7707H224.739V35.2627ZM227.727 30.0427H233.829C235.377 30.0427 235.539 30.4927 235.539 31.4467C235.539 32.5447 235.323 32.9047 233.721 32.9047H227.727V30.0427Z" fill="#29558E"/>
</g>
<defs>
<clipPath id="clip0_127:132">
<rect width="240" height="37.2967" fill="white" transform="translate(0 0.262695)"/>
</clipPath>
</defs>
</svg>
